<svg width="24" height="24" viewBox="0 0 24 24" fill="none" xmlns="http://www.w3.org/2000/svg">
<path d="M10 4.00001L8 6.00001M17 19V21M2 12H22M7 19V21M9 5.00001L7.621 3.62101C7.33181 3.33048 6.96463 3.12998 6.56388 3.04376C6.16313 2.95754 5.74598 2.98929 5.36289 3.13518C4.97981 3.28107 4.64721 3.53485 4.40533 3.8658C4.16346 4.19676 4.02267 4.59072 4 5.00001V17C4 17.5304 4.21071 18.0392 4.58579 18.4142C4.96086 18.7893 5.46957 19 6 19H18C18.5304 19 19.0391 18.7893 19.4142 18.4142C19.7893 18.0392 20 17.5304 20 17V12" stroke="black" stroke-width="1.5" stroke-linecap="round" stroke-linejoin="round"/>
</svg>
