<svg width="147" height="110" viewBox="0 0 147 110" fill="none" xmlns="http://www.w3.org/2000/svg">
<path d="M34.319 84.5551C30.8871 82.7919 28.2533 80.3074 26.3378 77.1015C24.4223 73.8956 23.4646 70.1287 23.4646 65.961V22.7618C23.4646 22.1206 23.7838 21.8 24.4223 21.8H31.4457C32.0842 21.8 32.3237 22.1206 32.3237 22.7618V66.2015C32.3237 70.2088 33.6007 73.4147 36.1546 75.8993C38.7086 78.3838 42.0607 79.586 46.1311 79.586C50.2014 79.586 53.5535 78.3838 56.0277 75.8993C58.5018 73.4147 59.7788 70.2088 59.7788 66.2015V22.7618C59.7788 22.1206 60.0981 21.8 60.6567 21.8H67.6801C68.3186 21.8 68.6379 22.1206 68.6379 22.7618V65.961C68.6379 70.1287 67.6802 73.8956 65.8445 77.1015C64.0088 80.3074 61.375 82.7919 57.9432 84.5551C54.5113 86.3184 50.6005 87.2 46.1311 87.2C41.6616 87.2 37.671 86.3184 34.319 84.5551Z" fill="#263E39"/>
<path d="M111.896 24.4449C115.327 26.2081 117.961 28.6926 119.877 31.8985C121.792 35.1044 122.75 38.8713 122.75 43.039V86.2382C122.75 86.8794 122.431 87.2 121.792 87.2H114.769C114.13 87.2 113.891 86.8794 113.891 86.2382V42.7985C113.891 38.7912 112.614 35.5853 110.06 33.1007C107.506 30.6162 104.154 29.414 100.083 29.414C96.0131 29.414 92.661 30.6162 90.1869 33.1007C87.7127 35.5853 86.4357 38.7912 86.4357 42.7985V86.2382C86.4357 86.8794 86.1165 87.2 85.5578 87.2H78.5344C77.8959 87.2 77.5767 86.8794 77.5767 86.2382V43.039C77.5767 38.8713 78.5344 35.1044 80.3701 31.8985C82.2057 28.6926 84.8395 26.2081 88.2714 24.4449C91.7033 22.6816 95.614 21.8 100.083 21.8C104.553 21.8 108.544 22.6816 111.896 24.4449Z" fill="#263E39"/>
<path d="M137.755 8.49559V92.0088C137.755 96.7375 133.924 100.504 129.295 100.504H16.9998C12.291 100.504 8.53983 96.6573 8.53983 92.0088V17.0713C8.53983 12.3426 12.3708 8.57574 16.9998 8.57574H137.755M146.215 0H16.9998C7.58209 0 0 7.61397 0 17.0713V92.0088C0 101.386 7.58209 109.08 16.9998 109.08H129.295C138.633 109.08 146.294 101.466 146.294 92.0088V0H146.215Z" fill="#263E39"/>
</svg>
