<svg width="24" height="24" viewBox="0 0 24 24" fill="none" xmlns="http://www.w3.org/2000/svg">
<path d="M12 12V18M4.07696 10.615C4.01356 10.767 3.98868 10.9323 4.00451 11.0962C4.02035 11.2601 4.07642 11.4175 4.16774 11.5546C4.25905 11.6916 4.3828 11.8039 4.52798 11.8817C4.67317 11.9594 4.83529 12 4.99996 12H19C19.1646 12 19.3268 11.9594 19.4719 11.8817C19.6171 11.8039 19.7409 11.6916 19.8322 11.5546C19.9235 11.4175 19.9796 11.2601 19.9954 11.0962C20.0112 10.9323 19.9864 10.767 19.923 10.615L16.846 3.231C16.6941 2.8665 16.4378 2.5551 16.1093 2.33604C15.7808 2.11697 15.3948 2.00005 15 2H8.99996C8.60522 1.99997 8.21931 2.11674 7.89081 2.33562C7.56232 2.5545 7.30593 2.86569 7.15396 3.23L4.07696 10.615ZM7.99996 20C7.99996 19.4696 8.21068 18.9609 8.58575 18.5858C8.96082 18.2107 9.46953 18 9.99996 18H14C14.5304 18 15.0391 18.2107 15.4142 18.5858C15.7892 18.9609 16 19.4696 16 20V21C16 21.2652 15.8946 21.5196 15.7071 21.7071C15.5195 21.8946 15.2652 22 15 22H8.99996C8.73474 22 8.48039 21.8946 8.29285 21.7071C8.10532 21.5196 7.99996 21.2652 7.99996 21V20Z" stroke="black" stroke-width="1.5" stroke-linecap="round" stroke-linejoin="round"/>
</svg>
