<svg width="126" height="90" viewBox="0 0 126 90" fill="none" xmlns="http://www.w3.org/2000/svg">
<path d="M29.375 2C14.1667 2 2 14.1667 2 29.375V75C2 78.2268 3.28184 81.3214 5.56353 83.6031C7.84523 85.8848 10.9399 87.1667 14.1667 87.1667H111.5C114.727 87.1667 117.821 85.8848 120.103 83.6031C122.385 81.3214 123.667 78.2268 123.667 75V26.3333C123.667 12.95 112.717 2 99.3333 2H29.375ZM29.375 2C44.5833 2 56.75 14.1667 56.75 29.375V75C56.75 78.2268 55.4682 81.3214 53.1865 83.6031C50.9048 85.8848 47.8101 87.1667 44.5833 87.1667M81.0833 26.3333H99.3333V38.5M26.3333 32.4167H32.4167" stroke="#7F7E7E" stroke-width="4" stroke-linecap="round" stroke-linejoin="round"/>
</svg>
