<svg width="330" height="43" viewBox="0 0 330 43" fill="none" xmlns="http://www.w3.org/2000/svg">
<rect x="1.5" y="1.5" width="327" height="40" rx="2.5" stroke="#263E39" stroke-width="3"/>
<path d="M86.3633 15.3334C87.7742 15.3334 89.074 15.807 90.1133 16.6039L88.9336 17.7836C88.2042 17.2777 87.3191 16.9789 86.3633 16.9789C83.8659 16.9789 81.8418 19.0035 81.8418 21.5004C81.842 23.9971 83.866 26.0218 86.3633 26.0219C88.4608 26.0219 89.9363 24.7607 90.4717 23.0199L90.6699 22.3734H86.8633V20.8256L92.2217 20.8334C92.3659 22.007 92.1596 23.6161 91.377 24.976C90.5217 26.462 88.9742 27.6664 86.3633 27.6664C82.9568 27.6664 80.1955 24.906 80.1953 21.5004C80.1953 18.0946 82.9567 15.3334 86.3633 15.3334Z" fill="#292828" stroke="#263E39"/>
<path d="M106.912 28.128C106.112 28.128 105.408 27.9733 104.8 27.664C104.192 27.344 103.723 26.9013 103.392 26.336C103.061 25.7707 102.896 25.1147 102.896 24.368V20.416C102.896 19.6693 103.061 19.0133 103.392 18.448C103.723 17.8827 104.192 17.4453 104.8 17.136C105.408 16.8267 106.112 16.672 106.912 16.672C107.701 16.672 108.4 16.8213 109.008 17.12C109.616 17.4187 110.085 17.84 110.416 18.384C110.747 18.928 110.912 19.5573 110.912 20.272C110.912 20.3253 110.891 20.3733 110.848 20.416C110.816 20.448 110.773 20.464 110.72 20.464L109.248 20.544C109.12 20.544 109.056 20.4853 109.056 20.368C109.056 19.7387 108.859 19.232 108.464 18.848C108.08 18.464 107.563 18.272 106.912 18.272C106.261 18.272 105.739 18.464 105.344 18.848C104.949 19.232 104.752 19.7387 104.752 20.368V24.448C104.752 25.0667 104.949 25.568 105.344 25.952C105.739 26.336 106.261 26.528 106.912 26.528C107.563 26.528 108.08 26.3413 108.464 25.968C108.859 25.584 109.056 25.0773 109.056 24.448C109.056 24.3307 109.12 24.272 109.248 24.272L110.72 24.336C110.773 24.336 110.816 24.352 110.848 24.384C110.891 24.416 110.912 24.4533 110.912 24.496C110.912 25.2213 110.747 25.8613 110.416 26.416C110.085 26.96 109.616 27.3813 109.008 27.68C108.4 27.9787 107.701 28.128 106.912 28.128ZM116.183 28.128C115.34 28.128 114.615 27.9147 114.007 27.488C113.409 27.0613 112.988 26.4693 112.743 25.712C112.561 25.136 112.471 24.528 112.471 23.888C112.471 23.2053 112.556 22.5973 112.727 22.064C112.972 21.3173 113.399 20.736 114.007 20.32C114.615 19.904 115.345 19.696 116.199 19.696C117.009 19.696 117.708 19.904 118.295 20.32C118.892 20.736 119.313 21.312 119.559 22.048C119.751 22.56 119.847 23.168 119.847 23.872C119.847 24.544 119.756 25.152 119.575 25.696C119.329 26.4533 118.908 27.0507 118.311 27.488C117.713 27.9147 117.004 28.128 116.183 28.128ZM116.183 26.528C116.577 26.528 116.913 26.416 117.191 26.192C117.479 25.968 117.687 25.6533 117.815 25.248C117.921 24.896 117.975 24.448 117.975 23.904C117.975 23.328 117.921 22.88 117.815 22.56C117.697 22.1547 117.495 21.8453 117.207 21.632C116.919 21.408 116.567 21.296 116.151 21.296C115.756 21.296 115.415 21.408 115.127 21.632C114.839 21.8453 114.631 22.1547 114.503 22.56C114.396 22.9333 114.343 23.3813 114.343 23.904C114.343 24.4267 114.396 24.8747 114.503 25.248C114.62 25.6533 114.823 25.968 115.111 26.192C115.409 26.416 115.767 26.528 116.183 26.528ZM125.521 19.696C126.385 19.696 127.073 19.952 127.585 20.464C128.108 20.976 128.369 21.6747 128.369 22.56V27.808C128.369 27.8613 128.348 27.9093 128.305 27.952C128.273 27.984 128.231 28 128.177 28H126.705C126.652 28 126.604 27.984 126.561 27.952C126.529 27.9093 126.513 27.8613 126.513 27.808V22.944C126.513 22.4533 126.375 22.0587 126.097 21.76C125.82 21.4507 125.452 21.296 124.993 21.296C124.535 21.296 124.161 21.4453 123.873 21.744C123.596 22.0427 123.457 22.4373 123.457 22.928V27.808C123.457 27.8613 123.436 27.9093 123.393 27.952C123.361 27.984 123.319 28 123.265 28H121.793C121.74 28 121.692 27.984 121.649 27.952C121.617 27.9093 121.601 27.8613 121.601 27.808V20.016C121.601 19.9627 121.617 19.92 121.649 19.888C121.692 19.8453 121.74 19.824 121.793 19.824H123.265C123.319 19.824 123.361 19.8453 123.393 19.888C123.436 19.92 123.457 19.9627 123.457 20.016V20.528C123.457 20.56 123.468 20.5813 123.489 20.592C123.511 20.6027 123.527 20.592 123.537 20.56C123.975 19.984 124.636 19.696 125.521 19.696ZM134.641 21.136C134.641 21.1893 134.619 21.2373 134.577 21.28C134.545 21.312 134.502 21.328 134.449 21.328H132.817C132.763 21.328 132.737 21.3547 132.737 21.408V25.264C132.737 25.6693 132.822 25.9627 132.993 26.144C133.174 26.3253 133.457 26.416 133.841 26.416H134.321C134.374 26.416 134.417 26.4373 134.449 26.48C134.491 26.512 134.513 26.5547 134.513 26.608V27.808C134.513 27.9253 134.449 27.9947 134.321 28.016L133.489 28.032C132.646 28.032 132.017 27.888 131.601 27.6C131.185 27.312 130.971 26.768 130.961 25.968V21.408C130.961 21.3547 130.934 21.328 130.881 21.328H129.969C129.915 21.328 129.867 21.312 129.825 21.28C129.793 21.2373 129.777 21.1893 129.777 21.136V20.016C129.777 19.9627 129.793 19.92 129.825 19.888C129.867 19.8453 129.915 19.824 129.969 19.824H130.881C130.934 19.824 130.961 19.7973 130.961 19.744V17.872C130.961 17.8187 130.977 17.776 131.009 17.744C131.051 17.7013 131.099 17.68 131.153 17.68H132.545C132.598 17.68 132.641 17.7013 132.673 17.744C132.715 17.776 132.737 17.8187 132.737 17.872V19.744C132.737 19.7973 132.763 19.824 132.817 19.824H134.449C134.502 19.824 134.545 19.8453 134.577 19.888C134.619 19.92 134.641 19.9627 134.641 20.016V21.136ZM137.345 18.704C137.014 18.704 136.742 18.5973 136.529 18.384C136.316 18.1707 136.209 17.8987 136.209 17.568C136.209 17.2373 136.316 16.9653 136.529 16.752C136.742 16.5387 137.014 16.432 137.345 16.432C137.676 16.432 137.948 16.5387 138.161 16.752C138.374 16.9653 138.481 17.2373 138.481 17.568C138.481 17.8987 138.374 18.1707 138.161 18.384C137.948 18.5973 137.676 18.704 137.345 18.704ZM136.577 28C136.524 28 136.476 27.984 136.433 27.952C136.401 27.9093 136.385 27.8613 136.385 27.808V20C136.385 19.9467 136.401 19.904 136.433 19.872C136.476 19.8293 136.524 19.808 136.577 19.808H138.049C138.102 19.808 138.145 19.8293 138.177 19.872C138.22 19.904 138.241 19.9467 138.241 20V27.808C138.241 27.8613 138.22 27.9093 138.177 27.952C138.145 27.984 138.102 28 138.049 28H136.577ZM144.287 19.696C145.151 19.696 145.839 19.952 146.351 20.464C146.874 20.976 147.135 21.6747 147.135 22.56V27.808C147.135 27.8613 147.114 27.9093 147.071 27.952C147.039 27.984 146.996 28 146.943 28H145.471C145.418 28 145.37 27.984 145.327 27.952C145.295 27.9093 145.279 27.8613 145.279 27.808V22.944C145.279 22.4533 145.14 22.0587 144.863 21.76C144.586 21.4507 144.218 21.296 143.759 21.296C143.3 21.296 142.927 21.4453 142.639 21.744C142.362 22.0427 142.223 22.4373 142.223 22.928V27.808C142.223 27.8613 142.202 27.9093 142.159 27.952C142.127 27.984 142.084 28 142.031 28H140.559C140.506 28 140.458 27.984 140.415 27.952C140.383 27.9093 140.367 27.8613 140.367 27.808V20.016C140.367 19.9627 140.383 19.92 140.415 19.888C140.458 19.8453 140.506 19.824 140.559 19.824H142.031C142.084 19.824 142.127 19.8453 142.159 19.888C142.202 19.92 142.223 19.9627 142.223 20.016V20.528C142.223 20.56 142.234 20.5813 142.255 20.592C142.276 20.6027 142.292 20.592 142.303 20.56C142.74 19.984 143.402 19.696 144.287 19.696ZM153.902 20.016C153.902 19.9627 153.918 19.92 153.95 19.888C153.993 19.8453 154.041 19.824 154.094 19.824H155.55C155.603 19.824 155.646 19.8453 155.678 19.888C155.721 19.92 155.742 19.9627 155.742 20.016V27.808C155.742 27.8613 155.721 27.9093 155.678 27.952C155.646 27.984 155.603 28 155.55 28H154.094C154.041 28 153.993 27.984 153.95 27.952C153.918 27.9093 153.902 27.8613 153.902 27.808V27.296C153.902 27.264 153.891 27.2427 153.87 27.232C153.849 27.2213 153.827 27.232 153.806 27.264C153.369 27.8293 152.713 28.112 151.838 28.112C151.027 28.112 150.345 27.8773 149.79 27.408C149.246 26.9387 148.974 26.272 148.974 25.408V20.016C148.974 19.9627 148.99 19.92 149.022 19.888C149.065 19.8453 149.113 19.824 149.166 19.824H150.638C150.691 19.824 150.734 19.8453 150.766 19.888C150.809 19.92 150.83 19.9627 150.83 20.016V24.88C150.83 25.3813 150.958 25.7813 151.214 26.08C151.481 26.3787 151.849 26.528 152.318 26.528C152.798 26.528 153.182 26.3787 153.47 26.08C153.758 25.7813 153.902 25.3813 153.902 24.88V20.016ZM164.622 22.992C164.665 23.2587 164.686 23.5573 164.686 23.888L164.67 24.384C164.67 24.512 164.606 24.576 164.478 24.576H159.47C159.417 24.576 159.39 24.6027 159.39 24.656C159.422 25.008 159.47 25.248 159.534 25.376C159.79 26.144 160.414 26.5333 161.406 26.544C162.132 26.544 162.708 26.2453 163.134 25.648C163.177 25.584 163.23 25.552 163.294 25.552C163.337 25.552 163.374 25.568 163.406 25.6L164.398 26.416C164.494 26.4907 164.51 26.576 164.446 26.672C164.116 27.1413 163.673 27.504 163.118 27.76C162.574 28.016 161.966 28.144 161.294 28.144C160.462 28.144 159.753 27.9573 159.166 27.584C158.59 27.2107 158.169 26.688 157.902 26.016C157.657 25.44 157.534 24.64 157.534 23.616C157.534 22.9973 157.598 22.496 157.726 22.112C157.94 21.3653 158.34 20.7787 158.926 20.352C159.524 19.9147 160.238 19.696 161.07 19.696C163.172 19.696 164.356 20.7947 164.622 22.992ZM161.07 21.296C160.676 21.296 160.345 21.3973 160.078 21.6C159.822 21.792 159.641 22.064 159.534 22.416C159.47 22.5973 159.428 22.832 159.406 23.12C159.385 23.1733 159.406 23.2 159.47 23.2H162.718C162.772 23.2 162.798 23.1733 162.798 23.12C162.777 22.8533 162.745 22.6507 162.702 22.512C162.606 22.128 162.414 21.8293 162.126 21.616C161.849 21.4027 161.497 21.296 161.07 21.296ZM171.522 28C171.404 28 171.33 27.9467 171.298 27.84L169.01 20.032L168.994 19.968C168.994 19.8613 169.052 19.808 169.17 19.808H170.69C170.807 19.808 170.882 19.8613 170.914 19.968L172.242 25.312C172.252 25.344 172.268 25.36 172.29 25.36C172.311 25.36 172.327 25.344 172.338 25.312L173.73 19.968C173.762 19.8613 173.836 19.808 173.954 19.808H175.282C175.399 19.808 175.474 19.8613 175.506 19.968L176.93 25.312C176.94 25.344 176.956 25.36 176.978 25.36C176.999 25.36 177.015 25.344 177.026 25.312L178.45 19.968C178.482 19.8613 178.556 19.808 178.674 19.808L180.178 19.84C180.242 19.84 180.284 19.8613 180.306 19.904C180.338 19.936 180.348 19.984 180.338 20.048L178.034 27.84C178.002 27.9467 177.932 28 177.826 28H176.29C176.172 28 176.098 27.9467 176.066 27.84L174.658 22.96C174.647 22.928 174.631 22.912 174.61 22.912C174.588 22.912 174.572 22.928 174.562 22.96L173.266 27.84C173.234 27.9467 173.159 28 173.042 28H171.522ZM182.814 18.704C182.483 18.704 182.211 18.5973 181.998 18.384C181.784 18.1707 181.678 17.8987 181.678 17.568C181.678 17.2373 181.784 16.9653 181.998 16.752C182.211 16.5387 182.483 16.432 182.814 16.432C183.144 16.432 183.416 16.5387 183.63 16.752C183.843 16.9653 183.95 17.2373 183.95 17.568C183.95 17.8987 183.843 18.1707 183.63 18.384C183.416 18.5973 183.144 18.704 182.814 18.704ZM182.046 28C181.992 28 181.944 27.984 181.902 27.952C181.87 27.9093 181.854 27.8613 181.854 27.808V20C181.854 19.9467 181.87 19.904 181.902 19.872C181.944 19.8293 181.992 19.808 182.046 19.808H183.518C183.571 19.808 183.614 19.8293 183.646 19.872C183.688 19.904 183.71 19.9467 183.71 20V27.808C183.71 27.8613 183.688 27.9093 183.646 27.952C183.614 27.984 183.571 28 183.518 28H182.046ZM190.172 21.136C190.172 21.1893 190.15 21.2373 190.108 21.28C190.076 21.312 190.033 21.328 189.98 21.328H188.348C188.294 21.328 188.268 21.3547 188.268 21.408V25.264C188.268 25.6693 188.353 25.9627 188.524 26.144C188.705 26.3253 188.988 26.416 189.372 26.416H189.852C189.905 26.416 189.948 26.4373 189.98 26.48C190.022 26.512 190.044 26.5547 190.044 26.608V27.808C190.044 27.9253 189.98 27.9947 189.852 28.016L189.02 28.032C188.177 28.032 187.548 27.888 187.132 27.6C186.716 27.312 186.502 26.768 186.492 25.968V21.408C186.492 21.3547 186.465 21.328 186.412 21.328H185.5C185.446 21.328 185.398 21.312 185.356 21.28C185.324 21.2373 185.308 21.1893 185.308 21.136V20.016C185.308 19.9627 185.324 19.92 185.356 19.888C185.398 19.8453 185.446 19.824 185.5 19.824H186.412C186.465 19.824 186.492 19.7973 186.492 19.744V17.872C186.492 17.8187 186.508 17.776 186.54 17.744C186.582 17.7013 186.63 17.68 186.684 17.68H188.076C188.129 17.68 188.172 17.7013 188.204 17.744C188.246 17.776 188.268 17.8187 188.268 17.872V19.744C188.268 19.7973 188.294 19.824 188.348 19.824H189.98C190.033 19.824 190.076 19.8453 190.108 19.888C190.15 19.92 190.172 19.9627 190.172 20.016V21.136ZM195.74 19.696C196.604 19.696 197.292 19.952 197.804 20.464C198.327 20.976 198.588 21.6747 198.588 22.56V27.808C198.588 27.8613 198.567 27.9093 198.524 27.952C198.492 27.984 198.449 28 198.396 28H196.924C196.871 28 196.823 27.984 196.78 27.952C196.748 27.9093 196.732 27.8613 196.732 27.808V22.944C196.732 22.4533 196.593 22.0587 196.316 21.76C196.039 21.4507 195.671 21.296 195.212 21.296C194.753 21.296 194.38 21.4453 194.092 21.744C193.815 22.0427 193.676 22.4373 193.676 22.928V27.808C193.676 27.8613 193.655 27.9093 193.612 27.952C193.58 27.984 193.537 28 193.484 28H192.012C191.959 28 191.911 27.984 191.868 27.952C191.836 27.9093 191.82 27.8613 191.82 27.808V16.992C191.82 16.9387 191.836 16.896 191.868 16.864C191.911 16.8213 191.959 16.8 192.012 16.8H193.484C193.537 16.8 193.58 16.8213 193.612 16.864C193.655 16.896 193.676 16.9387 193.676 16.992V20.528C193.676 20.56 193.687 20.5813 193.708 20.592C193.729 20.6027 193.745 20.592 193.756 20.56C194.193 19.984 194.855 19.696 195.74 19.696ZM207.646 28.128C206.846 28.128 206.142 27.9733 205.534 27.664C204.926 27.344 204.457 26.896 204.126 26.32C203.796 25.744 203.63 25.0827 203.63 24.336V20.464C203.63 19.7067 203.796 19.0453 204.126 18.48C204.457 17.904 204.926 17.4613 205.534 17.152C206.142 16.832 206.846 16.672 207.646 16.672C208.436 16.672 209.129 16.8267 209.726 17.136C210.334 17.4453 210.804 17.8667 211.134 18.4C211.465 18.9333 211.63 19.536 211.63 20.208V20.336C211.63 20.3893 211.609 20.4373 211.566 20.48C211.534 20.512 211.492 20.528 211.438 20.528H209.982C209.929 20.528 209.881 20.512 209.838 20.48C209.806 20.4373 209.79 20.3893 209.79 20.336V20.256C209.79 19.68 209.593 19.2053 209.198 18.832C208.814 18.4587 208.297 18.272 207.646 18.272C206.996 18.272 206.473 18.4693 206.078 18.864C205.684 19.248 205.486 19.76 205.486 20.4V24.4C205.486 25.04 205.694 25.5573 206.11 25.952C206.526 26.336 207.065 26.528 207.726 26.528C208.366 26.528 208.868 26.3627 209.23 26.032C209.604 25.6907 209.79 25.2267 209.79 24.64V23.648C209.79 23.5947 209.764 23.568 209.71 23.568H207.742C207.689 23.568 207.641 23.552 207.598 23.52C207.566 23.4773 207.55 23.4293 207.55 23.376V22.192C207.55 22.1387 207.566 22.096 207.598 22.064C207.641 22.0213 207.689 22 207.742 22H211.438C211.492 22 211.534 22.0213 211.566 22.064C211.609 22.096 211.63 22.1387 211.63 22.192V24.24C211.63 25.4667 211.268 26.4213 210.542 27.104C209.828 27.7867 208.862 28.128 207.646 28.128ZM216.995 28.128C216.153 28.128 215.427 27.9147 214.819 27.488C214.222 27.0613 213.801 26.4693 213.555 25.712C213.374 25.136 213.283 24.528 213.283 23.888C213.283 23.2053 213.369 22.5973 213.539 22.064C213.785 21.3173 214.211 20.736 214.819 20.32C215.427 19.904 216.158 19.696 217.011 19.696C217.822 19.696 218.521 19.904 219.107 20.32C219.705 20.736 220.126 21.312 220.371 22.048C220.563 22.56 220.659 23.168 220.659 23.872C220.659 24.544 220.569 25.152 220.387 25.696C220.142 26.4533 219.721 27.0507 219.123 27.488C218.526 27.9147 217.817 28.128 216.995 28.128ZM216.995 26.528C217.39 26.528 217.726 26.416 218.003 26.192C218.291 25.968 218.499 25.6533 218.627 25.248C218.734 24.896 218.787 24.448 218.787 23.904C218.787 23.328 218.734 22.88 218.627 22.56C218.51 22.1547 218.307 21.8453 218.019 21.632C217.731 21.408 217.379 21.296 216.963 21.296C216.569 21.296 216.227 21.408 215.939 21.632C215.651 21.8453 215.443 22.1547 215.315 22.56C215.209 22.9333 215.155 23.3813 215.155 23.904C215.155 24.4267 215.209 24.8747 215.315 25.248C215.433 25.6533 215.635 25.968 215.923 26.192C216.222 26.416 216.579 26.528 216.995 26.528ZM225.886 28.128C225.043 28.128 224.318 27.9147 223.71 27.488C223.113 27.0613 222.691 26.4693 222.446 25.712C222.265 25.136 222.174 24.528 222.174 23.888C222.174 23.2053 222.259 22.5973 222.43 22.064C222.675 21.3173 223.102 20.736 223.71 20.32C224.318 19.904 225.049 19.696 225.902 19.696C226.713 19.696 227.411 19.904 227.998 20.32C228.595 20.736 229.017 21.312 229.262 22.048C229.454 22.56 229.55 23.168 229.55 23.872C229.55 24.544 229.459 25.152 229.278 25.696C229.033 26.4533 228.611 27.0507 228.014 27.488C227.417 27.9147 226.707 28.128 225.886 28.128ZM225.886 26.528C226.281 26.528 226.617 26.416 226.894 26.192C227.182 25.968 227.39 25.6533 227.518 25.248C227.625 24.896 227.678 24.448 227.678 23.904C227.678 23.328 227.625 22.88 227.518 22.56C227.401 22.1547 227.198 21.8453 226.91 21.632C226.622 21.408 226.27 21.296 225.854 21.296C225.459 21.296 225.118 21.408 224.83 21.632C224.542 21.8453 224.334 22.1547 224.206 22.56C224.099 22.9333 224.046 23.3813 224.046 23.904C224.046 24.4267 224.099 24.8747 224.206 25.248C224.323 25.6533 224.526 25.968 224.814 26.192C225.113 26.416 225.47 26.528 225.886 26.528ZM236.313 20.016C236.313 19.9627 236.329 19.92 236.361 19.888C236.403 19.8453 236.451 19.824 236.505 19.824H237.977C238.03 19.824 238.073 19.8453 238.105 19.888C238.147 19.92 238.169 19.9627 238.169 20.016V27.456C238.169 28.7893 237.785 29.7387 237.017 30.304C236.259 30.88 235.262 31.168 234.025 31.168C233.694 31.168 233.369 31.152 233.049 31.12C232.931 31.1093 232.873 31.04 232.873 30.912L232.921 29.6C232.921 29.4827 232.995 29.424 233.145 29.424C233.454 29.456 233.731 29.472 233.977 29.472C234.777 29.472 235.363 29.312 235.737 28.992C236.121 28.6827 236.313 28.1547 236.313 27.408V27.28C236.313 27.248 236.302 27.232 236.281 27.232C236.259 27.2213 236.238 27.2267 236.217 27.248C235.779 27.7173 235.161 27.952 234.361 27.952C233.667 27.952 233.033 27.776 232.457 27.424C231.881 27.072 231.481 26.5333 231.257 25.808C231.118 25.3067 231.049 24.6613 231.049 23.872C231.049 22.9867 231.134 22.3093 231.305 21.84C231.518 21.1893 231.886 20.672 232.409 20.288C232.931 19.8933 233.545 19.696 234.249 19.696C235.091 19.696 235.747 19.9413 236.217 20.432C236.238 20.464 236.259 20.4747 236.281 20.464C236.302 20.4533 236.313 20.432 236.313 20.4V20.016ZM236.201 25.28C236.243 25.12 236.27 24.9493 236.281 24.768C236.302 24.576 236.313 24.272 236.313 23.856C236.313 23.4507 236.302 23.1627 236.281 22.992C236.27 22.8107 236.238 22.6347 236.185 22.464C236.099 22.112 235.923 21.8293 235.657 21.616C235.401 21.4027 235.07 21.296 234.665 21.296C234.281 21.296 233.955 21.4027 233.689 21.616C233.422 21.8293 233.23 22.112 233.113 22.464C232.985 22.7627 232.921 23.232 232.921 23.872C232.921 24.5333 232.974 24.9973 233.081 25.264C233.187 25.6053 233.379 25.888 233.657 26.112C233.945 26.3253 234.286 26.432 234.681 26.432C235.097 26.432 235.433 26.3253 235.689 26.112C235.945 25.8987 236.115 25.6213 236.201 25.28ZM240.278 28C240.224 28 240.176 27.984 240.134 27.952C240.102 27.9093 240.086 27.8613 240.086 27.808V16.992C240.086 16.9387 240.102 16.896 240.134 16.864C240.176 16.8213 240.224 16.8 240.278 16.8H241.75C241.803 16.8 241.846 16.8213 241.878 16.864C241.92 16.896 241.942 16.9387 241.942 16.992V27.808C241.942 27.8613 241.92 27.9093 241.878 27.952C241.846 27.984 241.803 28 241.75 28H240.278ZM250.81 22.992C250.853 23.2587 250.874 23.5573 250.874 23.888L250.858 24.384C250.858 24.512 250.794 24.576 250.666 24.576H245.658C245.605 24.576 245.578 24.6027 245.578 24.656C245.61 25.008 245.658 25.248 245.722 25.376C245.978 26.144 246.602 26.5333 247.594 26.544C248.319 26.544 248.895 26.2453 249.322 25.648C249.365 25.584 249.418 25.552 249.482 25.552C249.525 25.552 249.562 25.568 249.594 25.6L250.586 26.416C250.682 26.4907 250.698 26.576 250.634 26.672C250.303 27.1413 249.861 27.504 249.306 27.76C248.762 28.016 248.154 28.144 247.482 28.144C246.65 28.144 245.941 27.9573 245.354 27.584C244.778 27.2107 244.357 26.688 244.09 26.016C243.845 25.44 243.722 24.64 243.722 23.616C243.722 22.9973 243.786 22.496 243.914 22.112C244.127 21.3653 244.527 20.7787 245.114 20.352C245.711 19.9147 246.426 19.696 247.258 19.696C249.359 19.696 250.543 20.7947 250.81 22.992ZM247.258 21.296C246.863 21.296 246.533 21.3973 246.266 21.6C246.01 21.792 245.829 22.064 245.722 22.416C245.658 22.5973 245.615 22.832 245.594 23.12C245.573 23.1733 245.594 23.2 245.658 23.2H248.906C248.959 23.2 248.986 23.1733 248.986 23.12C248.965 22.8533 248.933 22.6507 248.89 22.512C248.794 22.128 248.602 21.8293 248.314 21.616C248.037 21.4027 247.685 21.296 247.258 21.296Z" fill="#263E39"/>
</svg>
