<svg width="330" height="43" viewBox="0 0 330 43" fill="none" xmlns="http://www.w3.org/2000/svg">
<rect x="1.5" y="1.5" width="327" height="40" rx="2.5" stroke="#263E39" stroke-width="3"/>
<path d="M142.784 28.128C141.952 28.128 141.227 27.9947 140.608 27.728C139.989 27.4613 139.509 27.088 139.168 26.608C138.837 26.128 138.672 25.5627 138.672 24.912V24.512C138.672 24.4587 138.688 24.416 138.72 24.384C138.763 24.3413 138.811 24.32 138.864 24.32H140.288C140.341 24.32 140.384 24.3413 140.416 24.384C140.459 24.416 140.48 24.4587 140.48 24.512V24.816C140.48 25.3067 140.699 25.7173 141.136 26.048C141.573 26.368 142.171 26.528 142.928 26.528C143.579 26.528 144.069 26.3893 144.4 26.112C144.731 25.8347 144.896 25.4773 144.896 25.04C144.896 24.7413 144.805 24.4907 144.624 24.288C144.443 24.0747 144.181 23.8827 143.84 23.712C143.509 23.5413 143.008 23.328 142.336 23.072C141.579 22.7947 140.965 22.5333 140.496 22.288C140.027 22.0427 139.632 21.712 139.312 21.296C139.003 20.8693 138.848 20.3413 138.848 19.712C138.848 18.7733 139.189 18.032 139.872 17.488C140.555 16.944 141.467 16.672 142.608 16.672C143.408 16.672 144.112 16.8107 144.72 17.088C145.339 17.3653 145.819 17.7547 146.16 18.256C146.501 18.7467 146.672 19.3173 146.672 19.968V20.24C146.672 20.2933 146.651 20.3413 146.608 20.384C146.576 20.416 146.533 20.432 146.48 20.432H145.04C144.987 20.432 144.939 20.416 144.896 20.384C144.864 20.3413 144.848 20.2933 144.848 20.24V20.064C144.848 19.5627 144.64 19.1413 144.224 18.8C143.819 18.448 143.253 18.272 142.528 18.272C141.941 18.272 141.483 18.3947 141.152 18.64C140.832 18.8853 140.672 19.232 140.672 19.68C140.672 20 140.757 20.2613 140.928 20.464C141.099 20.6667 141.355 20.8533 141.696 21.024C142.037 21.184 142.565 21.392 143.28 21.648C144.037 21.936 144.64 22.1973 145.088 22.432C145.547 22.6667 145.936 22.9973 146.256 23.424C146.587 23.84 146.752 24.3627 146.752 24.992C146.752 25.952 146.395 26.7147 145.68 27.28C144.976 27.8453 144.011 28.128 142.784 28.128ZM149.501 18.704C149.17 18.704 148.898 18.5973 148.685 18.384C148.472 18.1707 148.365 17.8987 148.365 17.568C148.365 17.2373 148.472 16.9653 148.685 16.752C148.898 16.5387 149.17 16.432 149.501 16.432C149.832 16.432 150.104 16.5387 150.317 16.752C150.53 16.9653 150.637 17.2373 150.637 17.568C150.637 17.8987 150.53 18.1707 150.317 18.384C150.104 18.5973 149.832 18.704 149.501 18.704ZM148.733 28C148.68 28 148.632 27.984 148.589 27.952C148.557 27.9093 148.541 27.8613 148.541 27.808V20C148.541 19.9467 148.557 19.904 148.589 19.872C148.632 19.8293 148.68 19.808 148.733 19.808H150.205C150.258 19.808 150.301 19.8293 150.333 19.872C150.376 19.904 150.397 19.9467 150.397 20V27.808C150.397 27.8613 150.376 27.9093 150.333 27.952C150.301 27.984 150.258 28 150.205 28H148.733ZM157.531 20.016C157.531 19.9627 157.547 19.92 157.579 19.888C157.622 19.8453 157.67 19.824 157.723 19.824H159.195C159.249 19.824 159.291 19.8453 159.323 19.888C159.366 19.92 159.387 19.9627 159.387 20.016V27.456C159.387 28.7893 159.003 29.7387 158.235 30.304C157.478 30.88 156.481 31.168 155.243 31.168C154.913 31.168 154.587 31.152 154.267 31.12C154.15 31.1093 154.091 31.04 154.091 30.912L154.139 29.6C154.139 29.4827 154.214 29.424 154.363 29.424C154.673 29.456 154.95 29.472 155.195 29.472C155.995 29.472 156.582 29.312 156.955 28.992C157.339 28.6827 157.531 28.1547 157.531 27.408V27.28C157.531 27.248 157.521 27.232 157.499 27.232C157.478 27.2213 157.457 27.2267 157.435 27.248C156.998 27.7173 156.379 27.952 155.579 27.952C154.886 27.952 154.251 27.776 153.675 27.424C153.099 27.072 152.699 26.5333 152.475 25.808C152.337 25.3067 152.267 24.6613 152.267 23.872C152.267 22.9867 152.353 22.3093 152.523 21.84C152.737 21.1893 153.105 20.672 153.627 20.288C154.15 19.8933 154.763 19.696 155.467 19.696C156.31 19.696 156.966 19.9413 157.435 20.432C157.457 20.464 157.478 20.4747 157.499 20.464C157.521 20.4533 157.531 20.432 157.531 20.4V20.016ZM157.419 25.28C157.462 25.12 157.489 24.9493 157.499 24.768C157.521 24.576 157.531 24.272 157.531 23.856C157.531 23.4507 157.521 23.1627 157.499 22.992C157.489 22.8107 157.457 22.6347 157.403 22.464C157.318 22.112 157.142 21.8293 156.875 21.616C156.619 21.4027 156.289 21.296 155.883 21.296C155.499 21.296 155.174 21.4027 154.907 21.616C154.641 21.8293 154.449 22.112 154.331 22.464C154.203 22.7627 154.139 23.232 154.139 23.872C154.139 24.5333 154.193 24.9973 154.299 25.264C154.406 25.6053 154.598 25.888 154.875 26.112C155.163 26.3253 155.505 26.432 155.899 26.432C156.315 26.432 156.651 26.3253 156.907 26.112C157.163 25.8987 157.334 25.6213 157.419 25.28ZM165.225 19.696C166.089 19.696 166.777 19.952 167.289 20.464C167.811 20.976 168.073 21.6747 168.073 22.56V27.808C168.073 27.8613 168.051 27.9093 168.009 27.952C167.977 27.984 167.934 28 167.881 28H166.409C166.355 28 166.307 27.984 166.265 27.952C166.233 27.9093 166.217 27.8613 166.217 27.808V22.944C166.217 22.4533 166.078 22.0587 165.801 21.76C165.523 21.4507 165.155 21.296 164.697 21.296C164.238 21.296 163.865 21.4453 163.577 21.744C163.299 22.0427 163.161 22.4373 163.161 22.928V27.808C163.161 27.8613 163.139 27.9093 163.097 27.952C163.065 27.984 163.022 28 162.969 28H161.497C161.443 28 161.395 27.984 161.353 27.952C161.321 27.9093 161.305 27.8613 161.305 27.808V20.016C161.305 19.9627 161.321 19.92 161.353 19.888C161.395 19.8453 161.443 19.824 161.497 19.824H162.969C163.022 19.824 163.065 19.8453 163.097 19.888C163.139 19.92 163.161 19.9627 163.161 20.016V20.528C163.161 20.56 163.171 20.5813 163.193 20.592C163.214 20.6027 163.23 20.592 163.241 20.56C163.678 19.984 164.339 19.696 165.225 19.696ZM177.307 28.128C176.517 28.128 175.819 27.9733 175.211 27.664C174.603 27.3547 174.128 26.9173 173.787 26.352C173.456 25.776 173.291 25.1147 173.291 24.368V16.992C173.291 16.9387 173.307 16.896 173.339 16.864C173.381 16.8213 173.429 16.8 173.483 16.8H174.955C175.008 16.8 175.051 16.8213 175.083 16.864C175.125 16.896 175.147 16.9387 175.147 16.992V24.4C175.147 25.0293 175.344 25.5413 175.739 25.936C176.133 26.3307 176.656 26.528 177.307 26.528C177.957 26.528 178.48 26.3307 178.875 25.936C179.269 25.5413 179.467 25.0293 179.467 24.4V16.992C179.467 16.9387 179.483 16.896 179.515 16.864C179.557 16.8213 179.605 16.8 179.659 16.8H181.131C181.184 16.8 181.227 16.8213 181.259 16.864C181.301 16.896 181.323 16.9387 181.323 16.992V24.368C181.323 25.1147 181.157 25.776 180.827 26.352C180.496 26.9173 180.027 27.3547 179.419 27.664C178.811 27.9733 178.107 28.128 177.307 28.128ZM190.311 21.936C190.503 22.48 190.599 23.1467 190.599 23.936C190.599 24.6933 190.508 25.344 190.327 25.888C190.092 26.592 189.713 27.1413 189.191 27.536C188.679 27.9307 188.028 28.128 187.239 28.128C186.481 28.128 185.873 27.856 185.415 27.312C185.393 27.2907 185.372 27.2853 185.351 27.296C185.329 27.3067 185.319 27.328 185.319 27.36V30.832C185.319 30.8853 185.297 30.928 185.255 30.96C185.223 31.0027 185.18 31.024 185.127 31.024H183.655C183.601 31.024 183.553 31.0027 183.511 30.96C183.479 30.928 183.463 30.8853 183.463 30.832V20.016C183.463 19.9627 183.479 19.92 183.511 19.888C183.553 19.8453 183.601 19.824 183.655 19.824H185.127C185.18 19.824 185.223 19.8453 185.255 19.888C185.297 19.92 185.319 19.9627 185.319 20.016V20.496C185.319 20.528 185.329 20.5493 185.351 20.56C185.372 20.5707 185.393 20.56 185.415 20.528C185.884 19.9733 186.497 19.696 187.255 19.696C188.012 19.696 188.652 19.8933 189.175 20.288C189.697 20.6827 190.076 21.232 190.311 21.936ZM188.231 25.856C188.551 25.3653 188.711 24.7147 188.711 23.904C188.711 23.1253 188.583 22.512 188.327 22.064C188.028 21.5413 187.575 21.28 186.967 21.28C186.412 21.28 185.996 21.536 185.719 22.048C185.473 22.464 185.351 23.0827 185.351 23.904C185.351 24.7467 185.484 25.3867 185.751 25.824C186.028 26.2933 186.428 26.528 186.951 26.528C187.516 26.528 187.943 26.304 188.231 25.856Z" fill="#263E39"/>
</svg>
