<svg width="61" height="46" viewBox="0 0 61 46" fill="none" xmlns="http://www.w3.org/2000/svg">
<g clip-path="url(#clip0_78_1213)">
<path d="M14.241 35.3594C12.8169 34.622 11.724 33.583 10.9291 32.2424C10.1342 30.9018 9.73682 29.3265 9.73682 27.5837V9.51853C9.73682 9.2504 9.86929 9.11633 10.1342 9.11633H13.0487C13.3137 9.11633 13.413 9.2504 13.413 9.51853V27.6842C13.413 29.36 13.9429 30.7007 15.0027 31.7397C16.0626 32.7787 17.4536 33.2814 19.1426 33.2814C20.8317 33.2814 22.2227 32.7787 23.2494 31.7397C24.2761 30.7007 24.806 29.36 24.806 27.6842V9.51853C24.806 9.2504 24.9385 9.11633 25.1703 9.11633H28.0848C28.3497 9.11633 28.4822 9.2504 28.4822 9.51853V27.5837C28.4822 29.3265 28.0848 30.9018 27.323 32.2424C26.5613 33.583 25.4684 34.622 24.0442 35.3594C22.6201 36.0967 20.9973 36.4654 19.1426 36.4654C17.288 36.4654 15.632 36.0967 14.241 35.3594Z" fill="#F2A250"/>
<path d="M46.4331 10.2224C47.8572 10.9597 48.9501 11.9987 49.745 13.3394C50.5398 14.68 50.9373 16.2552 50.9373 17.9981V36.0632C50.9373 36.3314 50.8048 36.4654 50.5398 36.4654H47.6254C47.3604 36.4654 47.2611 36.3314 47.2611 36.0632V17.8975C47.2611 16.2217 46.7312 14.8811 45.6713 13.8421C44.6115 12.8031 43.2205 12.3004 41.5315 12.3004C39.8424 12.3004 38.4514 12.8031 37.4247 13.8421C36.398 14.8811 35.8681 16.2217 35.8681 17.8975V36.0632C35.8681 36.3314 35.7356 36.4654 35.5038 36.4654H32.5893C32.3244 36.4654 32.1919 36.3314 32.1919 36.0632V17.9981C32.1919 16.2552 32.5893 14.68 33.3511 13.3394C34.1128 11.9987 35.2057 10.9597 36.6298 10.2224C38.054 9.48501 39.6768 9.11633 41.5315 9.11633C43.3861 9.11633 45.0421 9.48501 46.4331 10.2224Z" fill="#F2A250"/>
<path d="M57.1635 3.5527V38.4764C57.1635 40.4539 55.5738 42.0291 53.6529 42.0291H7.05436C5.10033 42.0291 3.54374 40.4203 3.54374 38.4764V7.13892C3.54374 5.16147 5.13345 3.58622 7.05436 3.58622H57.1635M60.6741 0H7.05436C3.14631 0 0 3.18402 0 7.13892V38.4764C0 42.3978 3.14631 45.6153 7.05436 45.6153H53.6529C57.5278 45.6153 60.7072 42.4313 60.7072 38.4764V0H60.6741Z" fill="#263E39"/>
</g>
<defs>
<clipPath id="clip0_78_1213">
<rect width="61" height="46" fill="white"/>
</clipPath>
</defs>
</svg>
