<svg width="24" height="24" viewBox="0 0 24 24" fill="none" xmlns="http://www.w3.org/2000/svg">
<path d="M16 22L15 18M19 13.99C19.2652 13.99 19.5195 13.8846 19.7071 13.6971C19.8946 13.5096 20 13.2552 20 12.99V12C20 11.4696 19.7893 10.9609 19.4142 10.5858C19.0391 10.2107 18.5304 10 18 10H15C14.7348 10 14.4804 9.89464 14.2929 9.70711C14.1053 9.51957 14 9.26522 14 9V4C14 3.46957 13.7893 2.96086 13.4142 2.58579C13.0391 2.21071 12.5304 2 12 2C11.4695 2 10.9608 2.21071 10.5858 2.58579C10.2107 2.96086 9.99997 3.46957 9.99997 4V9C9.99997 9.26522 9.89462 9.51957 9.70708 9.70711C9.51954 9.89464 9.26519 10 8.99997 10H5.99997C5.46954 10 4.96083 10.2107 4.58576 10.5858C4.21069 10.9609 3.99997 11.4696 3.99997 12V12.99C3.99997 13.2552 4.10533 13.5096 4.29287 13.6971C4.4804 13.8846 4.73476 13.99 4.99997 13.99M7.99997 22L8.99997 18M4.99997 14H19L20.973 20.767C21.0082 20.914 21.0096 21.0671 20.9772 21.2148C20.9447 21.3624 20.8792 21.5008 20.7855 21.6195C20.6919 21.7382 20.5725 21.8341 20.4364 21.9C20.3004 21.9659 20.1512 22.0001 20 22H3.99997C3.84879 22.0001 3.69956 21.9659 3.5635 21.9C3.42744 21.8341 3.30809 21.7382 3.21444 21.6195C3.12078 21.5008 3.05526 21.3624 3.02279 21.2148C2.99032 21.0671 2.99175 20.914 3.02697 20.767L4.99997 14Z" stroke="black" stroke-width="1.5" stroke-linecap="round" stroke-linejoin="round"/>
</svg>
