<svg width="24" height="24" viewBox="0 0 24 24" fill="none" xmlns="http://www.w3.org/2000/svg">
<path d="M12 18.338C11.656 18.3373 11.3171 18.4211 11.013 18.582L6.39603 21.01C6.30836 21.0564 6.20943 21.0773 6.11048 21.0703C6.01153 21.0632 5.91655 21.0286 5.83632 20.9702C5.7561 20.9119 5.69386 20.8322 5.65669 20.7402C5.61951 20.6483 5.60889 20.5477 5.62603 20.45L6.50703 15.311C6.5654 14.9717 6.54027 14.6233 6.43382 14.296C6.32736 13.9686 6.14278 13.6721 5.89603 13.432L2.16003 9.795C2.08862 9.72603 2.03802 9.6384 2.01399 9.54207C1.98996 9.44575 1.99347 9.34462 2.02411 9.25019C2.05475 9.15576 2.1113 9.07184 2.18731 9.00798C2.26332 8.94412 2.35573 8.9029 2.45403 8.889L7.61903 8.134C7.95934 8.08466 8.28255 7.95329 8.56077 7.7512C8.83899 7.54911 9.06387 7.28237 9.21603 6.974L11.525 2.295C11.5688 2.20644 11.6365 2.13189 11.7205 2.07976C11.8044 2.02764 11.9012 2.00001 12 2" stroke="black" stroke-width="1.5" stroke-linecap="round" stroke-linejoin="round"/>
</svg>
