<svg width="330" height="330" viewBox="0 0 330 330" fill="none" xmlns="http://www.w3.org/2000/svg">
<g opacity="0.6">
<path d="M169.813 288.75H68.75C61.4566 288.75 54.4618 285.853 49.3046 280.695C44.1473 275.538 41.25 268.543 41.25 261.25V137.5C41.2467 133.494 42.1187 129.536 43.805 125.902C45.4913 122.268 47.9512 119.046 51.0125 116.463L147.263 33.9625C152.224 29.7748 158.507 27.4775 165 27.4775C171.493 27.4775 177.776 29.7748 182.738 33.9625L278.988 116.463C282.049 119.046 284.509 122.268 286.195 125.902C287.881 129.536 288.753 133.494 288.75 137.5V169.813M203.5 170.5C202.219 168.792 200.558 167.406 198.649 166.452C196.74 165.497 194.635 165 192.5 165H137.5C133.853 165 130.356 166.449 127.777 169.027C125.199 171.606 123.75 175.103 123.75 178.75V288.75M206.25 247.5H288.75M247.5 206.25V288.75" stroke="#BFBEBE" stroke-width="8" stroke-linecap="round" stroke-linejoin="round"/>
</g>
</svg>
