<svg width="61" height="46" viewBox="0 0 61 46" fill="none" xmlns="http://www.w3.org/2000/svg">
<g clip-path="url(#clip0_337_5541)">
<path d="M14.2411 35.3594C12.817 34.622 11.7241 33.583 10.9292 32.2424C10.1344 30.9018 9.73694 29.3265 9.73694 27.5837V9.51853C9.73694 9.2504 9.86941 9.11633 10.1344 9.11633H13.0488C13.3138 9.11633 13.4132 9.2504 13.4132 9.51853V27.6842C13.4132 29.36 13.9431 30.7007 15.0029 31.7397C16.0627 32.7787 17.4537 33.2814 19.1427 33.2814C20.8318 33.2814 22.2228 32.7787 23.2495 31.7397C24.2762 30.7007 24.8061 29.36 24.8061 27.6842V9.51853C24.8061 9.2504 24.9386 9.11633 25.1704 9.11633H28.0849C28.3498 9.11633 28.4823 9.2504 28.4823 9.51853V27.5837C28.4823 29.3265 28.0849 30.9018 27.3232 32.2424C26.5614 33.583 25.4685 34.622 24.0444 35.3594C22.6202 36.0967 20.9974 36.4654 19.1427 36.4654C17.2881 36.4654 15.6321 36.0967 14.2411 35.3594Z" fill="#F2A250"/>
<path d="M46.4328 10.2224C47.857 10.9597 48.9499 11.9987 49.7447 13.3394C50.5396 14.68 50.937 16.2552 50.937 17.9981V36.0632C50.937 36.3314 50.8046 36.4654 50.5396 36.4654H47.6251C47.3602 36.4654 47.2608 36.3314 47.2608 36.0632V17.8975C47.2608 16.2217 46.7309 14.8811 45.6711 13.8421C44.6113 12.8031 43.2203 12.3004 41.5312 12.3004C39.8421 12.3004 38.4511 12.8031 37.4245 13.8421C36.3978 14.8811 35.8679 16.2217 35.8679 17.8975V36.0632C35.8679 36.3314 35.7354 36.4654 35.5036 36.4654H32.5891C32.3241 36.4654 32.1917 36.3314 32.1917 36.0632V17.9981C32.1917 16.2552 32.5891 14.68 33.3508 13.3394C34.1126 11.9987 35.2055 10.9597 36.6296 10.2224C38.0537 9.48501 39.6766 9.11633 41.5312 9.11633C43.3859 9.11633 45.0418 9.48501 46.4328 10.2224Z" fill="#F2A250"/>
<path d="M57.1635 3.5527V38.4764C57.1635 40.4539 55.5738 42.0291 53.6529 42.0291H7.05436C5.10033 42.0291 3.54374 40.4203 3.54374 38.4764V7.13892C3.54374 5.16147 5.13345 3.58622 7.05436 3.58622H57.1635M60.6741 0H7.05436C3.14631 0 0 3.18402 0 7.13892V38.4764C0 42.3978 3.14631 45.6153 7.05436 45.6153H53.6529C57.5278 45.6153 60.7072 42.4313 60.7072 38.4764V0H60.6741Z" fill="#263E39"/>
</g>
<defs>
<clipPath id="clip0_337_5541">
<rect width="61" height="46" fill="white"/>
</clipPath>
</defs>
</svg>
