<svg width="16" height="15" viewBox="0 0 16 15" fill="none" xmlns="http://www.w3.org/2000/svg">
<path d="M7.68323 1.03009C7.71245 0.971066 7.75758 0.92138 7.81353 0.886642C7.86949 0.851904 7.93404 0.833496 7.9999 0.833496C8.06576 0.833496 8.13031 0.851904 8.18626 0.886642C8.24222 0.92138 8.28735 0.971066 8.31656 1.03009L9.85656 4.14943C9.95802 4.35474 10.1078 4.53236 10.293 4.66706C10.4782 4.80176 10.6933 4.8895 10.9199 4.92276L14.3639 5.42676C14.4292 5.43621 14.4905 5.46374 14.5409 5.50622C14.5913 5.54871 14.6289 5.60446 14.6492 5.66716C14.6696 5.72987 14.6721 5.79703 14.6563 5.86105C14.6405 5.92507 14.6071 5.98339 14.5599 6.02942L12.0692 8.45476C11.905 8.61483 11.7821 8.81241 11.7111 9.03051C11.6402 9.24861 11.6233 9.48068 11.6619 9.70676L12.2499 13.1334C12.2614 13.1987 12.2544 13.2658 12.2296 13.3272C12.2048 13.3886 12.1632 13.4418 12.1096 13.4808C12.056 13.5197 11.9926 13.5428 11.9265 13.5474C11.8604 13.552 11.7944 13.5379 11.7359 13.5068L8.65723 11.8881C8.45438 11.7816 8.22868 11.7259 7.99956 11.7259C7.77044 11.7259 7.54475 11.7816 7.3419 11.8881L4.2639 13.5068C4.20545 13.5377 4.1395 13.5516 4.07353 13.5469C4.00757 13.5422 3.94424 13.5191 3.89076 13.4802C3.83728 13.4413 3.79579 13.3882 3.771 13.3269C3.74622 13.2656 3.73914 13.1986 3.75056 13.1334L4.3379 9.70743C4.3767 9.48125 4.35989 9.24902 4.28892 9.03079C4.21796 8.81255 4.09497 8.61486 3.93056 8.45476L1.4399 6.03009C1.39229 5.98411 1.35856 5.92569 1.34254 5.86147C1.32652 5.79726 1.32886 5.72984 1.34928 5.66689C1.36971 5.60393 1.40741 5.54799 1.45808 5.50541C1.50876 5.46284 1.57037 5.43536 1.6359 5.42609L5.07923 4.92276C5.30607 4.88976 5.52149 4.80213 5.70695 4.66742C5.89242 4.5327 6.04237 4.35494 6.1439 4.14943L7.68323 1.03009Z" fill="#F2A250" stroke="#59716C" stroke-linecap="round" stroke-linejoin="round"/>
</svg>
