<svg width="166" height="36" viewBox="0 0 166 36" fill="none" xmlns="http://www.w3.org/2000/svg">
<g clip-path="url(#clip0_337_5476)">
<path d="M11.2144 27.9264C10.093 27.3441 9.23235 26.5235 8.60643 25.4647C7.9805 24.4058 7.66754 23.1617 7.66754 21.7852V7.5176C7.66754 7.30583 7.77186 7.19995 7.9805 7.19995H10.2756C10.4842 7.19995 10.5624 7.30583 10.5624 7.5176V21.8647C10.5624 23.1882 10.9797 24.247 11.8143 25.0676C12.6488 25.8882 13.7442 26.2852 15.0743 26.2852C16.4044 26.2852 17.4997 25.8882 18.3082 25.0676C19.1167 24.247 19.534 23.1882 19.534 21.8647V7.5176C19.534 7.30583 19.6383 7.19995 19.8209 7.19995H22.1159C22.3246 7.19995 22.4289 7.30583 22.4289 7.5176V21.7852C22.4289 23.1617 22.1159 24.4058 21.5161 25.4647C20.9162 26.5235 20.0556 27.3441 18.9342 27.9264C17.8127 28.5088 16.5348 28.7999 15.0743 28.7999C13.6138 28.7999 12.3098 28.5088 11.2144 27.9264Z" fill="#263E39"/>
<path d="M36.5643 8.07348C37.6858 8.65583 38.5464 9.47642 39.1723 10.5352C39.7982 11.5941 40.1112 12.8382 40.1112 14.2147V28.4823C40.1112 28.6941 40.0069 28.7999 39.7982 28.7999H37.5032C37.2945 28.7999 37.2163 28.6941 37.2163 28.4823V14.1352C37.2163 12.8117 36.799 11.7529 35.9645 10.9323C35.1299 10.1117 34.0345 9.71466 32.7044 9.71466C31.3744 9.71466 30.279 10.1117 29.4705 10.9323C28.662 11.7529 28.2447 12.8117 28.2447 14.1352V28.4823C28.2447 28.6941 28.1404 28.7999 27.9579 28.7999H25.6628C25.4542 28.7999 25.3499 28.6941 25.3499 28.4823V14.2147C25.3499 12.8382 25.6628 11.5941 26.2627 10.5352C26.8625 9.47642 27.7231 8.65583 28.8446 8.07348C29.966 7.49113 31.244 7.19995 32.7044 7.19995C34.1649 7.19995 35.4689 7.49113 36.5643 8.07348Z" fill="#263E39"/>
<path d="M45.0143 2.80588V30.3882C45.0143 31.95 43.7625 33.1941 42.2498 33.1941H5.55507C4.01634 33.1941 2.79057 31.9235 2.79057 30.3882V5.63824C2.79057 4.07647 4.04242 2.83235 5.55507 2.83235H45.0143M47.7788 0H5.55507C2.47761 0 0 2.51471 0 5.63824V30.3882C0 33.4853 2.47761 36.0265 5.55507 36.0265H42.2498C45.3012 36.0265 47.8049 33.5118 47.8049 30.3882V0H47.7788Z" fill="#263E39"/>
<path d="M55.8115 27.7677C54.4553 26.6824 53.7512 25.253 53.7512 23.453V22.4736C53.7512 22.2618 53.8555 22.1559 54.0641 22.1559H55.6028C55.8115 22.1559 55.9158 22.2618 55.9158 22.4736V23.3206C55.9158 24.5383 56.4113 25.5442 57.4285 26.2853C58.4195 27.0265 59.8278 27.4236 61.6013 27.4236C63.2182 27.4236 64.4179 27.0795 65.2525 26.3912C66.0871 25.703 66.5043 24.7765 66.5043 23.6383C66.5043 22.8971 66.3218 22.2618 65.9306 21.7324C65.5394 21.203 64.9395 20.7 64.1571 20.25C63.3486 19.7736 62.2272 19.2442 60.7667 18.6353C59.2019 18 57.9761 17.4442 57.1155 16.9677C56.2548 16.4912 55.5507 15.8824 55.0291 15.1148C54.5075 14.3736 54.2206 13.4206 54.2206 12.2824C54.2206 10.5089 54.8204 9.1324 56.0462 8.12652C57.272 7.12064 58.9411 6.64417 61.0797 6.64417C63.4008 6.64417 65.2264 7.20005 66.5565 8.28534C67.8866 9.39711 68.5647 10.853 68.5647 12.6795V13.3677C68.5647 13.5795 68.4603 13.6853 68.2517 13.6853H66.6869C66.4783 13.6853 66.3739 13.5795 66.3739 13.3677V12.7853C66.3739 11.5677 65.9045 10.5618 64.9395 9.76769C64.0006 8.97358 62.6706 8.60299 60.9753 8.60299C59.4888 8.60299 58.3673 8.92063 57.5589 9.52946C56.7504 10.1383 56.3592 11.0383 56.3592 12.203C56.3592 12.9706 56.5417 13.6059 56.9329 14.0824C57.3241 14.5853 57.8718 15.0089 58.6021 15.3795C59.3323 15.75 60.4277 16.2265 61.9403 16.8353C63.453 17.4706 64.6787 18.053 65.6176 18.6089C66.5565 19.1648 67.2867 19.8265 67.8605 20.6206C68.4343 21.4148 68.7211 22.3942 68.7211 23.5324C68.7211 25.3059 68.0691 26.7353 66.7912 27.7942C65.5133 28.853 63.7138 29.3824 61.4187 29.3824C59.1237 29.3824 57.1937 28.853 55.8376 27.7677H55.8115Z" fill="#263E39"/>
<path d="M73.3112 28.8V7.19997C73.3112 6.98821 73.4156 6.88232 73.6242 6.88232H75.2151C75.4237 6.88232 75.528 6.98821 75.528 7.19997V17.9735C75.528 17.9735 75.528 18.0529 75.5802 18.0794C75.6324 18.0794 75.6584 18.0794 75.6845 18.0529L85.5689 7.06762C85.5689 7.06762 85.7775 6.90879 85.934 6.90879H87.7596C87.7596 6.90879 87.9683 6.96174 87.9943 7.04115C88.0204 7.12056 87.9943 7.19997 87.9161 7.30585L80.2485 16.0941C80.2485 16.0941 80.1964 16.2 80.2485 16.2794L88.5681 28.7735L88.6203 28.9323C88.6203 29.0911 88.5159 29.1441 88.3334 29.1441H86.5078C86.3513 29.1441 86.2209 29.0911 86.1426 28.9588L78.7359 17.8941C78.7359 17.8941 78.6837 17.8411 78.6316 17.8411C78.5794 17.8411 78.5533 17.8411 78.5273 17.8676L75.5541 21.0706C75.5541 21.0706 75.502 21.1764 75.502 21.2294V28.8264C75.502 29.0382 75.3976 29.1441 75.189 29.1441H73.5981C73.3895 29.1441 73.2852 29.0382 73.2852 28.8264L73.3112 28.8Z" fill="#263E39"/>
<path d="M95.9488 28.4823C94.8274 27.9 93.9406 27.0529 93.3147 25.9941C92.6888 24.9353 92.3758 23.6911 92.3758 22.2617V7.19997C92.3758 6.98821 92.4802 6.88232 92.6888 6.88232H94.2797C94.4883 6.88232 94.5926 6.98821 94.5926 7.19997V22.3147C94.5926 23.8235 95.0621 25.0411 96.027 25.9941C96.992 26.947 98.2439 27.397 99.8087 27.397C101.373 27.397 102.625 26.9206 103.59 25.9941C104.555 25.0411 105.025 23.8235 105.025 22.3147V7.19997C105.025 6.98821 105.129 6.88232 105.338 6.88232H106.929C107.137 6.88232 107.241 6.98821 107.241 7.19997V22.2617C107.241 23.6911 106.929 24.9353 106.329 25.9941C105.703 27.0529 104.842 27.9 103.721 28.4823C102.599 29.0647 101.295 29.3823 99.8087 29.3823C98.3221 29.3823 97.0442 29.0911 95.9227 28.4823H95.9488Z" fill="#263E39"/>
<path d="M123.828 7.78232C124.95 8.36468 125.837 9.21174 126.463 10.2706C127.088 11.3294 127.401 12.5735 127.401 14.0029V29.0647C127.401 29.2764 127.297 29.3823 127.088 29.3823H125.498C125.289 29.3823 125.185 29.2764 125.185 29.0647V13.95C125.185 12.4411 124.715 11.2235 123.75 10.2706C122.785 9.31762 121.533 8.86762 119.969 8.86762C118.404 8.86762 117.152 9.34409 116.187 10.2706C115.222 11.2235 114.753 12.4411 114.753 13.95V29.0647C114.753 29.2764 114.648 29.3823 114.44 29.3823H112.849C112.64 29.3823 112.536 29.2764 112.536 29.0647V14.0029C112.536 12.5735 112.849 11.3294 113.449 10.2706C114.074 9.21174 114.935 8.36468 116.057 7.78232C117.178 7.19997 118.482 6.88232 119.969 6.88232C121.455 6.88232 122.733 7.1735 123.855 7.78232H123.828Z" fill="#263E39"/>
<path d="M146.805 7.19997V8.57644C146.805 8.78821 146.701 8.89409 146.492 8.89409H140.363C140.363 8.89409 140.233 8.94703 140.233 9.02644V28.8264C140.233 29.0382 140.129 29.1441 139.92 29.1441H138.329C138.12 29.1441 138.016 29.0382 138.016 28.8264V9.02644C138.016 9.02644 137.964 8.89409 137.886 8.89409H131.992C131.783 8.89409 131.679 8.78821 131.679 8.57644V7.19997C131.679 6.98821 131.783 6.88232 131.992 6.88232H146.492C146.701 6.88232 146.805 6.98821 146.805 7.19997Z" fill="#263E39"/>
<path d="M162.427 7.78232C163.548 8.36468 164.435 9.21174 165.061 10.2706C165.687 11.3294 166 12.5735 166 14.0029V29.0647C166 29.2764 165.896 29.3823 165.687 29.3823H164.096C163.888 29.3823 163.783 29.2764 163.783 29.0647V13.95C163.783 12.4411 163.314 11.2235 162.349 10.2706C161.384 9.31762 160.132 8.86762 158.567 8.86762C157.002 8.86762 155.751 9.34409 154.786 10.2706C153.821 11.197 153.351 12.4411 153.351 13.95V29.0647C153.351 29.2764 153.247 29.3823 153.038 29.3823H151.447C151.239 29.3823 151.134 29.2764 151.134 29.0647V14.0029C151.134 12.5735 151.447 11.3294 152.047 10.2706C152.673 9.21174 153.534 8.36468 154.655 7.78232C155.777 7.19997 157.081 6.88232 158.567 6.88232C160.054 6.88232 161.332 7.1735 162.453 7.78232H162.427Z" fill="#263E39"/>
<path d="M121.507 11.4618C121.951 11.7 122.316 12.0177 122.551 12.4677C122.811 12.8912 122.916 13.3941 122.916 13.95V19.7206C122.916 19.7206 122.864 19.853 122.785 19.853H117.048C117.048 19.853 116.917 19.8 116.917 19.7206V13.95C116.917 13.3941 117.048 12.8912 117.282 12.4677C117.517 12.0441 117.882 11.7 118.326 11.4618C118.769 11.2236 119.291 11.1177 119.89 11.1177C120.49 11.1177 121.012 11.2236 121.455 11.4618H121.507Z" fill="#F2A250"/>
<path d="M160.106 11.4618C160.549 11.7 160.914 12.0177 161.149 12.4677C161.41 12.8912 161.514 13.3941 161.514 13.95V19.7206C161.514 19.7206 161.462 19.853 161.384 19.853H155.646C155.646 19.853 155.516 19.8 155.516 19.7206V13.95C155.516 13.3941 155.646 12.8912 155.881 12.4677C156.116 12.0441 156.481 11.7 156.924 11.4618C157.367 11.2236 157.889 11.1177 158.489 11.1177C159.089 11.1177 159.61 11.2236 160.054 11.4618H160.106Z" fill="#F2A250"/>
</g>
<defs>
<clipPath id="clip0_337_5476">
<rect width="166" height="36" fill="white"/>
</clipPath>
</defs>
</svg>
