<svg width="16" height="17" viewBox="0 0 16 17" fill="none" xmlns="http://www.w3.org/2000/svg">
<path d="M7.68323 2.03009C7.71245 1.97107 7.75758 1.92138 7.81353 1.88664C7.86949 1.8519 7.93404 1.8335 7.9999 1.8335C8.06576 1.8335 8.13031 1.8519 8.18626 1.88664C8.24222 1.92138 8.28735 1.97107 8.31656 2.03009L9.85656 5.14942C9.95802 5.35474 10.1078 5.53236 10.293 5.66706C10.4782 5.80176 10.6933 5.8895 10.9199 5.92276L14.3639 6.42676C14.4292 6.43621 14.4905 6.46374 14.5409 6.50622C14.5913 6.54871 14.6289 6.60446 14.6492 6.66716C14.6696 6.72987 14.6721 6.79703 14.6563 6.86105C14.6405 6.92507 14.6071 6.98339 14.5599 7.02942L12.0692 9.45476C11.905 9.61483 11.7821 9.81241 11.7111 10.0305C11.6402 10.2486 11.6233 10.4807 11.6619 10.7068L12.2499 14.1334C12.2614 14.1987 12.2544 14.2658 12.2296 14.3272C12.2048 14.3886 12.1632 14.4418 12.1096 14.4808C12.056 14.5197 11.9926 14.5428 11.9265 14.5474C11.8604 14.552 11.7944 14.5379 11.7359 14.5068L8.65723 12.8881C8.45438 12.7816 8.22868 12.7259 7.99956 12.7259C7.77044 12.7259 7.54475 12.7816 7.3419 12.8881L4.2639 14.5068C4.20545 14.5377 4.1395 14.5516 4.07353 14.5469C4.00757 14.5422 3.94424 14.5191 3.89076 14.4802C3.83728 14.4413 3.79579 14.3882 3.771 14.3269C3.74622 14.2656 3.73914 14.1986 3.75056 14.1334L4.3379 10.7074C4.3767 10.4812 4.35989 10.249 4.28892 10.0308C4.21796 9.81255 4.09497 9.61486 3.93056 9.45476L1.4399 7.03009C1.39229 6.98411 1.35856 6.92569 1.34254 6.86147C1.32652 6.79726 1.32886 6.72984 1.34928 6.66689C1.36971 6.60393 1.40741 6.54799 1.45808 6.50541C1.50876 6.46284 1.57037 6.43536 1.6359 6.42609L5.07923 5.92276C5.30607 5.88976 5.52149 5.80213 5.70695 5.66742C5.89242 5.5327 6.04237 5.35494 6.1439 5.14942L7.68323 2.03009Z" stroke="#59716C" stroke-linecap="round" stroke-linejoin="round"/>
</svg>
