<svg width="24" height="24" viewBox="0 0 24 24" fill="none" xmlns="http://www.w3.org/2000/svg">
<path d="M14.622 17.897L3.94198 14.984M8.99998 8.00001C7.19598 10.71 5.02998 11.46 2.41698 11.948C2.3303 11.9638 2.24924 12.002 2.18179 12.0587C2.11434 12.1154 2.06283 12.1887 2.03235 12.2714C2.00186 12.354 1.99345 12.4432 2.00794 12.5301C2.02243 12.6171 2.05932 12.6987 2.11498 12.767L9.43498 21.65C9.58366 21.8079 9.77965 21.9132 9.9934 21.95C10.2071 21.9868 10.4271 21.9531 10.62 21.854C12.735 20.405 16 16.792 16 15M18.376 2.62201C18.5731 2.4249 18.8071 2.26854 19.0646 2.16186C19.3222 2.05518 19.5982 2.00027 19.877 2.00027C20.1557 2.00027 20.4318 2.05518 20.6893 2.16186C20.9469 2.26854 21.1809 2.4249 21.378 2.62201C21.5751 2.81912 21.7315 3.05313 21.8381 3.31067C21.9448 3.56822 21.9997 3.84425 21.9997 4.12301C21.9997 4.40177 21.9448 4.6778 21.8381 4.93534C21.7315 5.19289 21.5751 5.4269 21.378 5.62401L17.36 9.64301C17.2662 9.73677 17.2136 9.86393 17.2136 9.99651C17.2136 10.1291 17.2662 10.2562 17.36 10.35L18.304 11.294C18.7559 11.746 19.0097 12.3589 19.0097 12.998C19.0097 13.6371 18.7559 14.2501 18.304 14.702L17.36 15.646C17.2662 15.7397 17.1391 15.7924 17.0065 15.7924C16.8739 15.7924 16.7467 15.7397 16.653 15.646L8.35398 7.34801C8.26025 7.25425 8.20759 7.12709 8.20759 6.99451C8.20759 6.86193 8.26025 6.73477 8.35398 6.64101L9.29798 5.69701C9.74993 5.24512 10.3629 4.99126 11.002 4.99126C11.6411 4.99126 12.254 5.24512 12.706 5.69701L13.65 6.64101C13.7437 6.73474 13.8709 6.7874 14.0035 6.7874C14.1361 6.7874 14.2632 6.73474 14.357 6.64101L18.376 2.62201Z" stroke="black" stroke-width="1.5" stroke-linecap="round" stroke-linejoin="round"/>
</svg>
